<?xml version="1.0" encoding="iso-8859-1"?>
<!-- Generator: Adobe Illustrator 18.1.1, SVG Export Plug-In . SVG Version: 6.00 Build 0)  -->
<svg xmlns="http://www.w3.org/2000/svg" xmlns:xlink="http://www.w3.org/1999/xlink" version="1.1" id="Capa_1" x="0px" y="0px" viewBox="0 0 271.348 271.348" style="enable-background:new 0 0 271.348 271.348;" xml:space="preserve" width="512px" height="512px">
<g>
	<g>
		<path d="M135.671,42.384c3.951,0,7.158-3.207,7.158-7.158V7.158c0-3.951-3.207-7.158-7.158-7.158    s-7.158,3.207-7.158,7.158v28.069C128.513,39.178,131.72,42.384,135.671,42.384z" fill="#FFFFFF"/>
		<path d="M135.671,228.986c-3.951,0-7.158,3.207-7.158,7.158v28.047c0,3.951,3.207,7.158,7.158,7.158    s7.158-3.207,7.158-7.158v-28.047C142.828,232.192,139.625,228.986,135.671,228.986z" fill="#FFFFFF"/>
		<path d="M59.577,69.702c1.396,1.399,3.228,2.097,5.06,2.097s3.661-0.698,5.06-2.097    c2.795-2.795,2.795-7.326,0-10.121L49.861,39.74c-2.792-2.795-7.326-2.795-10.121,0c-2.795,2.795-2.795,7.326,0,10.121    L59.577,69.702z" fill="#FFFFFF"/>
		<path d="M211.771,201.65c-2.795-2.795-7.329-2.792-10.125-0.004c-2.795,2.795-2.795,7.326-0.004,10.125    l19.841,19.859c1.399,1.399,3.232,2.097,5.064,2.097c1.832,0,3.661-0.698,5.061-2.094c2.795-2.795,2.795-7.326,0.004-10.125    L211.771,201.65z" fill="#FFFFFF"/>
		<path d="M42.374,135.678c0-3.951-3.207-7.158-7.158-7.158H7.158c-3.951,0-7.158,3.207-7.158,7.158    s3.207,7.158,7.158,7.158h28.058C39.167,142.836,42.374,139.629,42.374,135.678z" fill="#FFFFFF"/>
		<path d="M264.191,128.52h-28.058c-3.951,0-7.158,3.207-7.158,7.158s3.207,7.158,7.158,7.158h28.058    c3.951,0,7.158-3.207,7.158-7.158S268.145,128.52,264.191,128.52z" fill="#FFFFFF"/>
		<path d="M59.574,201.65l-19.841,19.859c-2.792,2.799-2.792,7.329,0.004,10.125    c1.399,1.396,3.228,2.094,5.06,2.094c1.832,0,3.665-0.698,5.064-2.097l19.841-19.859c2.792-2.799,2.792-7.329-0.004-10.125    C66.899,198.852,62.369,198.855,59.574,201.65z" fill="#FFFFFF"/>
		<path d="M206.707,71.799c1.832,0,3.661-0.698,5.061-2.097l19.841-19.841c2.795-2.795,2.795-7.326,0-10.121    c-2.795-2.795-7.326-2.795-10.121,0l-19.841,19.841c-2.795,2.795-2.795,7.326,0,10.121    C203.043,71.101,204.875,71.799,206.707,71.799z" fill="#FFFFFF"/>
		<path d="M135.674,55.669c-44.124,0-80.02,35.892-80.02,80.009c0,44.124,35.896,80.02,80.02,80.02    s80.02-35.896,80.02-80.02C215.694,91.561,179.798,55.669,135.674,55.669z M135.674,201.382    c-36.232,0-65.704-29.475-65.704-65.704c0-36.225,29.475-65.693,65.704-65.693s65.704,29.472,65.704,65.693    C201.378,171.907,171.903,201.382,135.674,201.382z" fill="#FFFFFF"/>
	</g>
</g>
<g>
</g>
<g>
</g>
<g>
</g>
<g>
</g>
<g>
</g>
<g>
</g>
<g>
</g>
<g>
</g>
<g>
</g>
<g>
</g>
<g>
</g>
<g>
</g>
<g>
</g>
<g>
</g>
<g>
</g>
</svg>
