<?xml version="1.0" encoding="iso-8859-1"?>
<!-- Generator: Adobe Illustrator 18.1.1, SVG Export Plug-In . SVG Version: 6.00 Build 0)  -->
<svg xmlns="http://www.w3.org/2000/svg" xmlns:xlink="http://www.w3.org/1999/xlink" version="1.1" id="Capa_1" x="0px" y="0px" viewBox="0 0 158.824 158.824" style="enable-background:new 0 0 158.824 158.824;" xml:space="preserve" width="512px" height="512px">
<g>
	<g>
		<path d="M80.103,158.824c-44.124,0-80.02-35.889-80.02-80.005c0-38.784,27.707-71.885,65.883-78.706    c2.33-0.419,4.703,0.344,6.36,2.022c1.653,1.682,2.376,4.073,1.925,6.388c-0.827,4.241-1.245,8.485-1.245,12.619    c0,36.218,29.475,65.686,65.704,65.686c3.772,0,7.566-0.354,11.61-1.081c2.337-0.408,4.703,0.34,6.36,2.018    c1.661,1.682,2.38,4.076,1.929,6.392C151.333,131.628,118.311,158.824,80.103,158.824z M58.823,16.69    c-26.244,8.926-44.424,33.659-44.424,62.125c0,36.222,29.475,65.69,65.704,65.69c27.983,0,52.577-17.765,61.807-43.433    c-1.066,0.047-2.133,0.068-3.196,0.068c-44.124,0-80.02-35.889-80.02-80.002C58.694,19.668,58.737,18.182,58.823,16.69z" fill="#FFFFFF"/>
	</g>
</g>
<g>
</g>
<g>
</g>
<g>
</g>
<g>
</g>
<g>
</g>
<g>
</g>
<g>
</g>
<g>
</g>
<g>
</g>
<g>
</g>
<g>
</g>
<g>
</g>
<g>
</g>
<g>
</g>
<g>
</g>
</svg>
