<?xml version="1.0" encoding="iso-8859-1"?>
<!-- Generator: Adobe Illustrator 18.1.1, SVG Export Plug-In . SVG Version: 6.00 Build 0)  -->
<svg xmlns="http://www.w3.org/2000/svg" xmlns:xlink="http://www.w3.org/1999/xlink" version="1.1" id="Capa_1" x="0px" y="0px" viewBox="0 0 328.76 328.76" style="enable-background:new 0 0 328.76 328.76;" xml:space="preserve" width="512px" height="512px">
<g>
	<g>
		<path d="M193.075,70.779c3.951,0,7.158-3.207,7.158-7.158V35.563c0-3.951-3.207-7.158-7.158-7.158    s-7.158,3.207-7.158,7.158v28.058C185.918,67.576,189.121,70.779,193.075,70.779z" fill="#FFFFFF"/>
		<path d="M116.985,98.111c1.399,1.399,3.228,2.097,5.064,2.097c1.832,0,3.661-0.698,5.061-2.094    c2.795-2.795,2.795-7.326,0-10.125l-19.838-19.845c-2.795-2.795-7.326-2.795-10.125,0c-2.795,2.795-2.795,7.326,0,10.125    L116.985,98.111z" fill="#FFFFFF"/>
		<path d="M269.173,230.056c-2.795-2.795-7.326-2.795-10.121,0c-2.795,2.792-2.795,7.326,0,10.121    l19.845,19.852c1.399,1.399,3.228,2.097,5.061,2.097c1.832,0,3.661-0.698,5.06-2.097c2.795-2.792,2.795-7.326,0-10.121    L269.173,230.056z" fill="#FFFFFF"/>
		<path d="M321.603,156.922h-28.062c-3.951,0-7.158,3.207-7.158,7.158s3.207,7.158,7.158,7.158h28.062    c3.951,0,7.158-3.207,7.158-7.158S325.554,156.922,321.603,156.922z" fill="#FFFFFF"/>
		<path d="M264.112,100.208c1.832,0,3.661-0.698,5.06-2.097l19.845-19.845c2.795-2.795,2.795-7.326,0-10.121    s-7.326-2.795-10.121,0L259.052,87.99c-2.795,2.795-2.795,7.326,0,10.121C260.451,99.51,262.28,100.208,264.112,100.208z" fill="#FFFFFF"/>
		<path d="M273.102,164.08c0-44.116-35.896-80.009-80.02-80.009c-35.474,0-66.327,23.381-76.455,56.671    c-6.775-2.33-13.775-3.529-20.918-3.529c-11.502,0-22.872,3.067-32.861,8.865c-6.7,3.869-12.598,8.843-17.576,14.813    c-7.433,0.455-14.713,2.648-21.201,6.417C9.226,175.908,0,191.876,0,208.98s9.223,33.065,24.079,41.665    c2.813,1.625,5.855,2.97,9.08,4.015c8.643,27.11,33.784,45.695,62.551,45.695c11.499,0,22.869-3.06,32.893-8.865    c2.892-1.686,5.665-3.6,8.296-5.73c13.328,5.211,28.888,4.058,41.486-3.232c14.094-8.171,23.098-22.969,23.982-39.063    C242.571,238.903,273.102,205.34,273.102,164.08z M171.209,270.142c-9.87,5.719-22.153,6.03-32.296,0.845    c-2.681-1.367-5.941-0.916-8.145,1.145c-2.877,2.691-6.03,5.039-9.352,6.972c-7.831,4.534-16.72,6.932-25.707,6.932    c-23.603,0-44.091-16.008-49.821-38.924c-0.651-2.598-2.695-4.617-5.304-5.229c-3.421-0.809-6.567-2.029-9.341-3.633    c-10.44-6.045-16.928-17.261-16.928-29.275s6.485-23.237,16.935-29.289c5.128-2.978,10.941-4.556,16.831-4.556    c0.029,0,0.061,0,0.093,0c2.462,0.19,4.853-0.866,6.335-2.849c4.245-5.676,9.459-10.325,15.511-13.822    c7.823-4.542,16.706-6.939,25.689-6.939c7.798,0,15.418,1.818,22.647,5.4c9.012,4.463,16.445,11.295,21.495,19.766    c1.961,3.285,6.166,4.441,9.538,2.638c3.464-1.865,7.365-2.763,11.259-2.698c3.897,0.064,7.795,1.095,11.255,3.092    c7.179,4.166,11.642,11.875,11.642,20.12c0,4.184-1.138,8.299-3.3,11.907c-1.532,2.559-1.313,5.801,0.544,8.131    c0.984,1.238,1.879,2.552,2.673,3.922c2.38,4.116,3.872,8.793,4.363,13.746l0.136,1.213c0.079,0.691,0.175,1.381,0.175,2.097    C188.14,252.871,181.648,264.083,171.209,270.142z M200.902,229.261c-0.34-1.396-0.748-2.759-1.206-4.109    c-0.093-0.272-0.211-0.537-0.308-0.809c-0.48-1.342-1.024-2.652-1.618-3.94c-0.19-0.408-0.379-0.816-0.58-1.217    c-0.748-1.496-1.546-2.967-2.452-4.377c2.051-4.71,3.121-9.802,3.121-14.963c0-13.335-7.197-25.789-18.785-32.507    c-5.733-3.318-12.29-5.01-18.828-5.021c-3.926-0.007-7.841,0.594-11.574,1.811c-1.432-1.943-2.992-3.783-4.624-5.551    c-0.515-0.558-1.07-1.074-1.607-1.618c-1.17-1.185-2.369-2.33-3.629-3.425c-0.666-0.576-1.346-1.127-2.033-1.678    c-1.245-0.995-2.534-1.943-3.854-2.852c-0.712-0.49-1.417-0.984-2.151-1.446c-0.365-0.229-0.698-0.497-1.066-0.719    c7.677-28.366,33.555-48.461,63.371-48.461c36.229,0,65.704,29.472,65.704,65.693    C258.787,197.889,233.817,225.432,200.902,229.261z" fill="#FFFFFF"/>
	</g>
</g>
<g>
</g>
<g>
</g>
<g>
</g>
<g>
</g>
<g>
</g>
<g>
</g>
<g>
</g>
<g>
</g>
<g>
</g>
<g>
</g>
<g>
</g>
<g>
</g>
<g>
</g>
<g>
</g>
<g>
</g>
</svg>
