<?xml version="1.0" encoding="iso-8859-1"?>
<!-- Generator: Adobe Illustrator 18.1.1, SVG Export Plug-In . SVG Version: 6.00 Build 0)  -->
<svg xmlns="http://www.w3.org/2000/svg" xmlns:xlink="http://www.w3.org/1999/xlink" version="1.1" id="Capa_1" x="0px" y="0px" viewBox="0 0 273.486 273.486" style="enable-background:new 0 0 273.486 273.486;" xml:space="preserve" width="512px" height="512px">
<g>
	<path d="M271.42,116.352c-1.657-1.682-4.033-2.444-6.367-2.015c-4.062,0.73-7.859,1.088-11.61,1.088   c-36.229,0-65.701-29.468-65.701-65.69c0-4.137,0.415-8.382,1.242-12.619c0.455-2.316-0.268-4.706-1.925-6.388   c-1.653-1.678-4.03-2.43-6.356-2.022c-30.341,5.426-54.567,27.833-62.78,56.997c-7.14-2.616-14.573-3.962-22.21-3.962   c-11.502,0-22.869,3.063-32.875,8.865c-6.703,3.887-12.601,8.861-17.569,14.816c-7.444,0.455-14.716,2.652-21.19,6.417   C9.226,120.435,0,136.404,0,153.514c0,17.089,9.226,33.051,24.071,41.647c2.834,1.646,5.876,2.995,9.09,4.037   c8.647,27.106,33.792,45.691,62.555,45.691c11.499,0,22.872-3.064,32.882-8.868c2.892-1.678,5.669-3.597,8.307-5.73   c13.331,5.211,28.899,4.058,41.479-3.225c14.376-8.328,23.449-23.552,24.021-40.019c34.922-3.318,64.147-29.322,70.951-64.29   C273.804,120.424,273.081,118.03,271.42,116.352z M171.202,214.659c-9.849,5.708-22.135,6.034-32.288,0.841   c-2.688-1.371-5.944-0.92-8.149,1.145c-2.885,2.698-6.034,5.046-9.352,6.972c-7.831,4.538-16.72,6.936-25.703,6.936   c-23.603,0-44.091-16.008-49.825-38.927c-0.651-2.609-2.709-4.627-5.325-5.236c-3.375-0.784-6.506-2.008-9.312-3.633   c-10.447-6.048-16.935-17.261-16.935-29.264c0-12.014,6.488-23.237,16.946-29.293c5.143-2.992,10.983-4.57,16.599-4.577   c0.204,0.018,0.709,0.043,0.913,0.043c2.255,0,4.381-1.063,5.73-2.87c4.241-5.662,9.459-10.314,15.511-13.822   c7.827-4.538,16.71-6.936,25.696-6.936c8.317,0,16.359,2.026,23.896,6.02c8.45,4.484,15.453,11.105,20.246,19.14   c1.958,3.282,6.138,4.449,9.513,2.648c6.982-3.722,15.647-3.586,22.536,0.394c7.183,4.162,11.642,11.875,11.642,20.124   c0,4.184-1.138,8.296-3.296,11.896c-1.532,2.559-1.317,5.798,0.537,8.131c3.769,4.731,6.174,10.525,7.011,17.082   c0.186,1.453,0.347,2.713,0.347,3.901C188.137,197.387,181.648,208.607,171.202,214.659z M200.673,172.837   c-0.347-1.288-0.752-2.562-1.195-3.811c-0.079-0.222-0.179-0.433-0.261-0.658c-0.48-1.285-1.02-2.548-1.607-3.786   c-0.179-0.376-0.361-0.752-0.548-1.124c-0.716-1.414-1.475-2.799-2.326-4.126c2.051-4.706,3.121-9.799,3.121-14.96   c0-13.338-7.193-25.793-18.785-32.517c-9.155-5.29-20.421-6.446-30.392-3.203c-1.349-1.829-2.813-3.568-4.345-5.247   c-0.483-0.53-0.999-1.02-1.5-1.535c-1.099-1.127-2.222-2.226-3.4-3.275c-0.619-0.548-1.249-1.077-1.886-1.603   c-1.163-0.963-2.362-1.879-3.597-2.759c-0.666-0.476-1.321-0.959-2.004-1.41c-0.333-0.222-0.637-0.472-0.973-0.687   c5.225-21.956,21.434-39.618,42.585-46.847c-0.082,1.489-0.129,2.97-0.129,4.441c0,44.117,35.896,80.005,80.016,80.005   c1.063,0,2.129-0.025,3.196-0.072C248.054,153.525,226.187,170.557,200.673,172.837z" fill="#FFFFFF"/>
</g>
<g>
</g>
<g>
</g>
<g>
</g>
<g>
</g>
<g>
</g>
<g>
</g>
<g>
</g>
<g>
</g>
<g>
</g>
<g>
</g>
<g>
</g>
<g>
</g>
<g>
</g>
<g>
</g>
<g>
</g>
</svg>
