<?xml version="1.0" encoding="iso-8859-1"?>
<!-- Generator: Adobe Illustrator 18.1.1, SVG Export Plug-In . SVG Version: 6.00 Build 0)  -->
<svg xmlns="http://www.w3.org/2000/svg" xmlns:xlink="http://www.w3.org/1999/xlink" version="1.1" id="Capa_1" x="0px" y="0px" viewBox="0 0 202.459 202.459" style="enable-background:new 0 0 202.459 202.459;" xml:space="preserve" width="512px" height="512px">
<g>
	<g>
		<path d="M95.713,182.804c-28.77,0-53.915-18.581-62.555-45.691c-3.221-1.045-6.263-2.394-9.083-4.026    C9.226,124.49,0,108.525,0,91.429c0-17.1,9.223-33.069,24.071-41.676c6.496-3.765,13.771-5.959,21.198-6.413    c4.964-5.955,10.858-10.93,17.565-14.816c10.006-5.801,21.373-8.868,32.875-8.868c21.233,0,40.616,9.953,52.981,26.917    c9.956-3.239,21.215-2.083,30.377,3.214c11.599,6.735,18.793,19.186,18.793,32.514c0,5.157-1.066,10.243-3.106,14.945    c5.057,7.773,7.705,16.699,7.705,26.068c0,17.103-9.226,33.072-24.082,41.672c-12.562,7.276-28.119,8.453-41.472,3.228    c-2.641,2.14-5.429,4.058-8.317,5.737C118.564,179.744,107.197,182.804,95.713,182.804z M47.896,57.566    c-5.637,0.007-11.485,1.585-16.645,4.577c-10.443,6.052-16.932,17.275-16.932,29.289c0,12.003,6.488,23.22,16.932,29.271    c2.781,1.61,5.919,2.831,9.323,3.629c2.613,0.612,4.663,2.63,5.315,5.232c5.726,22.919,26.215,38.927,49.825,38.927    c8.969,0,17.862-2.398,25.703-6.932c3.31-1.918,6.463-4.266,9.352-6.972c2.194-2.058,5.447-2.527,8.142-1.145    c10.2,5.204,22.443,4.86,32.288-0.845c10.45-6.045,16.939-17.268,16.939-29.282c0-7.677-2.541-14.931-7.351-20.979    c-1.857-2.333-2.069-5.572-0.537-8.128c2.158-3.604,3.296-7.72,3.296-11.91c0-8.242-4.459-15.951-11.642-20.117    c-6.911-3.987-15.568-4.112-22.529-0.397c-3.382,1.8-7.566,0.63-9.52-2.645c-9.398-15.754-25.9-25.163-44.138-25.163    c-8.983,0-17.869,2.398-25.696,6.936c-6.059,3.511-11.273,8.16-15.504,13.822c-1.389,1.861-3.611,2.974-5.912,2.874    C48.461,57.605,48.035,57.58,47.896,57.566z" fill="#FFFFFF"/>
	</g>
</g>
<g>
</g>
<g>
</g>
<g>
</g>
<g>
</g>
<g>
</g>
<g>
</g>
<g>
</g>
<g>
</g>
<g>
</g>
<g>
</g>
<g>
</g>
<g>
</g>
<g>
</g>
<g>
</g>
<g>
</g>
</svg>
