<?xml version="1.0" encoding="iso-8859-1"?>
<!-- Generator: Adobe Illustrator 18.1.1, SVG Export Plug-In . SVG Version: 6.00 Build 0)  -->
<svg xmlns="http://www.w3.org/2000/svg" xmlns:xlink="http://www.w3.org/1999/xlink" version="1.1" id="Capa_1" x="0px" y="0px" viewBox="0 0 242.743 242.743" style="enable-background:new 0 0 242.743 242.743;" xml:space="preserve" width="512px" height="512px">
<g>
	<path d="M235.66,100.272c1.854-4.355,2.817-9.054,2.817-13.818c0-12.555-6.775-24.279-17.68-30.606   c-8.514-4.921-18.968-6.045-28.262-3.139c-11.531-15.489-29.916-24.891-49.342-24.891c-10.762,0-21.398,2.87-30.76,8.296   c-6.213,3.597-11.681,8.196-16.298,13.696c-4.996,0.333-9.899,1.542-14.623,3.557c-6.553,1.457-12.837,3.887-18.678,7.276   c-6.71,3.89-12.608,8.868-17.565,14.82c-7.423,0.451-14.695,2.645-21.198,6.41C9.226,90.48,0,106.449,0,123.553   c0,17.096,9.226,33.058,24.075,41.654c2.827,1.636,5.869,2.981,9.083,4.023c8.643,27.106,33.784,45.695,62.555,45.695   c11.485,0,22.851-3.06,32.875-8.858c2.888-1.675,5.669-3.593,8.317-5.737c13.371,5.218,28.931,4.048,41.475-3.232   c10.608-6.138,18.327-15.987,21.863-27.55c6.975-0.426,13.811-2.391,19.898-5.923c13.943-8.063,22.6-23.048,22.6-39.11   C242.739,115.804,240.306,107.512,235.66,100.272z M171.201,184.708c-9.828,5.705-22.085,6.048-32.296,0.841   c-2.695-1.371-5.941-0.909-8.135,1.145c-2.906,2.713-6.052,5.061-9.355,6.975c-7.841,4.534-16.731,6.932-25.703,6.932   c-23.61,0-44.099-16.012-49.825-38.931c-0.651-2.609-2.709-4.631-5.325-5.239c-3.386-0.787-6.517-2.008-9.316-3.625   c-10.44-6.041-16.928-17.254-16.928-29.261c0-12.014,6.488-23.241,16.928-29.293c5.164-2.988,11.016-4.57,16.624-4.581   c0.165,0.014,0.626,0.043,0.791,0.043c2.426,0.054,4.481-1.031,5.855-2.874c4.219-5.655,9.434-10.304,15.5-13.822   c4.713-2.734,9.788-4.688,15.078-5.812c0.018-0.004,0.036-0.004,0.057-0.007c3.482-0.737,7.036-1.113,10.565-1.113   c18.238,0,34.74,9.405,44.138,25.163c1.954,3.278,6.141,4.449,9.52,2.645c1.492-0.798,3.063-1.381,4.667-1.825   c5.343-1.471,11.137-0.998,16.216,1.414c0.551,0.261,1.113,0.505,1.646,0.812c7.179,4.169,11.638,11.875,11.638,20.117   c0,4.191-1.134,8.307-3.289,11.9c-0.766,1.278-1.095,2.731-0.999,4.151c0.089,1.421,0.608,2.82,1.539,3.987   c4.81,6.041,7.351,13.299,7.351,20.976c0,1.732-0.175,3.554-0.555,5.73c-0.004,0.018,0,0.036-0.004,0.054   C185.857,171.112,179.895,179.676,171.201,184.708z M212.963,151.235c-3.264,1.893-6.836,3.171-10.515,3.772   c-0.004-0.222-0.025-0.433-0.029-0.655c-0.021-0.898-0.05-1.797-0.115-2.688c-0.029-0.344-0.075-0.68-0.111-1.024   c-0.075-0.787-0.154-1.575-0.268-2.355c-0.064-0.422-0.154-0.837-0.225-1.26c-0.122-0.691-0.236-1.389-0.387-2.072   c-0.107-0.487-0.247-0.966-0.372-1.446c-0.154-0.608-0.297-1.224-0.48-1.829c-0.154-0.512-0.34-1.009-0.512-1.514   c-0.19-0.565-0.365-1.138-0.576-1.7c-0.179-0.469-0.39-0.93-0.583-1.396c-0.24-0.58-0.472-1.167-0.737-1.739   c-0.147-0.319-0.322-0.626-0.476-0.945c-0.845-1.714-1.772-3.4-2.827-5.021c2.04-4.699,3.106-9.785,3.106-14.945c0,0,0,0,0-0.004   c0,0,0,0,0-0.004c0-13.328-7.197-25.782-18.785-32.507c-9.158-5.293-20.403-6.449-30.377-3.217   c-1.016-1.396-2.097-2.724-3.207-4.023c-0.265-0.311-0.537-0.623-0.812-0.93c-1.074-1.21-2.172-2.387-3.325-3.504   c-0.061-0.061-0.118-0.125-0.183-0.186c-1.231-1.192-2.516-2.316-3.829-3.4c-0.272-0.225-0.548-0.447-0.823-0.666   c-1.217-0.97-2.462-1.904-3.74-2.781c-0.125-0.086-0.247-0.179-0.372-0.265c-1.414-0.959-2.867-1.847-4.348-2.688   c-0.272-0.154-0.544-0.297-0.82-0.447c-1.331-0.734-2.691-1.417-4.073-2.054c-0.193-0.089-0.383-0.186-0.58-0.272   c-1.557-0.698-3.142-1.331-4.756-1.904c-0.261-0.093-0.53-0.175-0.795-0.265c-1.435-0.49-2.892-0.931-4.363-1.321   c-0.168-0.047-0.333-0.107-0.501-0.15c2.294-2.011,4.781-3.794,7.448-5.336c7.186-4.166,15.339-6.367,23.585-6.367   c16.745,0,31.888,8.632,40.509,23.091c1.954,3.282,6.138,4.441,9.52,2.648c6.295-3.364,14.151-3.25,20.399,0.361   c6.499,3.772,10.54,10.751,10.54,18.22c0,3.797-1.031,7.523-2.978,10.78c-1.532,2.559-1.317,5.798,0.537,8.131   c4.388,5.519,6.703,12.139,6.703,19.15C228.424,135.477,222.504,145.716,212.963,151.235z" fill="#FFFFFF"/>
</g>
<g>
</g>
<g>
</g>
<g>
</g>
<g>
</g>
<g>
</g>
<g>
</g>
<g>
</g>
<g>
</g>
<g>
</g>
<g>
</g>
<g>
</g>
<g>
</g>
<g>
</g>
<g>
</g>
<g>
</g>
</svg>
