<?xml version="1.0" encoding="iso-8859-1"?>
<!-- Generator: Adobe Illustrator 18.1.1, SVG Export Plug-In . SVG Version: 6.00 Build 0)  -->
<svg xmlns="http://www.w3.org/2000/svg" xmlns:xlink="http://www.w3.org/1999/xlink" version="1.1" id="Capa_1" x="0px" y="0px" viewBox="0 0 225.622 225.622" style="enable-background:new 0 0 225.622 225.622;" xml:space="preserve" width="512px" height="512px">
<g>
	<g>
		<path d="M206.333,77.582c2.04-4.703,3.106-9.788,3.106-14.945c0-13.328-7.193-25.778-18.782-32.503    c-9.212-5.329-20.564-6.446-30.402-3.221C147.951,10.175,128.185,0,107.296,0C95.793,0,84.427,3.067,74.42,8.868    c-6.707,3.887-12.601,8.861-17.565,14.816c-7.426,0.455-14.702,2.648-21.201,6.413c-14.845,8.607-24.071,24.576-24.071,41.676    s9.223,33.061,24.075,41.658c2.82,1.636,5.866,2.981,9.087,4.026c3.296,10.275,9.122,19.623,17.01,27.231    c2.845,2.745,7.38,2.659,10.121-0.183c2.745-2.845,2.663-7.38-0.183-10.121c-6.989-6.743-11.907-15.207-14.226-24.479    c-0.651-2.602-2.702-4.624-5.311-5.232c-3.407-0.798-6.542-2.018-9.326-3.629c-10.443-6.045-16.928-17.261-16.928-29.268    c0-12.011,6.485-23.234,16.932-29.289c5.157-2.988,11.009-4.57,16.642-4.577c0.14,0.011,0.565,0.039,0.705,0.043    c2.373,0.047,4.527-1.013,5.912-2.874c4.23-5.662,9.445-10.311,15.504-13.822c7.831-4.538,16.713-6.936,25.696-6.936    c18.245,0,34.743,9.405,44.138,25.159c1.954,3.278,6.141,4.449,9.516,2.648c6.979-3.722,15.632-3.593,22.532,0.397    c7.183,4.166,11.642,11.875,11.642,20.117c0,4.187-1.135,8.307-3.289,11.91c-1.528,2.559-1.313,5.794,0.54,8.128    c4.81,6.048,7.351,13.303,7.351,20.979c0,12.014-6.488,23.237-16.939,29.286c-5.161,2.992-11.009,4.57-16.914,4.57    c-1.406,0-2.856-0.104-4.434-0.326c-3.894-0.526-7.53,2.194-8.07,6.113c-0.537,3.915,2.194,7.53,6.113,8.07    c2.237,0.308,4.327,0.458,6.392,0.458c8.421,0,16.753-2.248,24.086-6.496c14.852-8.596,24.082-24.565,24.082-41.676    C214.042,94.281,211.39,85.359,206.333,77.582z" fill="#FFFFFF"/>
		<path d="M112.814,186.254c-3.951,0-7.158,3.207-7.158,7.158v25.052c0,3.951,3.207,7.158,7.158,7.158    s7.158-3.207,7.158-7.158v-25.052C119.972,189.461,116.765,186.254,112.814,186.254z" fill="#FFFFFF"/>
		<path d="M112.814,118.256c-3.951,0-7.158,3.207-7.158,7.158v25.052c0,3.951,3.207,7.158,7.158,7.158    s7.158-3.207,7.158-7.158v-25.052C119.972,121.463,116.765,118.256,112.814,118.256z" fill="#FFFFFF"/>
		<path d="M90.411,154.044c-3.951,0-7.158,3.207-7.158,7.158v25.052c0,3.951,3.207,7.158,7.158,7.158    c3.951,0,7.158-3.207,7.158-7.158v-25.052C97.568,157.251,94.365,154.044,90.411,154.044z" fill="#FFFFFF"/>
		<path d="M90.411,86.046c-3.951,0-7.158,3.207-7.158,7.158v25.052c0,3.951,3.207,7.158,7.158,7.158    c3.951,0,7.158-3.207,7.158-7.158V93.204C97.568,89.253,94.365,86.046,90.411,86.046z" fill="#FFFFFF"/>
		<path d="M135.218,171.939c-3.951,0-7.158,3.207-7.158,7.158v25.052c0,3.951,3.207,7.158,7.158,7.158    s7.158-3.207,7.158-7.158v-25.052C142.376,175.145,139.169,171.939,135.218,171.939z" fill="#FFFFFF"/>
		<path d="M135.218,103.941c-3.951,0-7.158,3.207-7.158,7.158v25.052c0,3.951,3.207,7.158,7.158,7.158    s7.158-3.207,7.158-7.158v-25.052C142.376,107.147,139.169,103.941,135.218,103.941z" fill="#FFFFFF"/>
	</g>
</g>
<g>
</g>
<g>
</g>
<g>
</g>
<g>
</g>
<g>
</g>
<g>
</g>
<g>
</g>
<g>
</g>
<g>
</g>
<g>
</g>
<g>
</g>
<g>
</g>
<g>
</g>
<g>
</g>
<g>
</g>
</svg>
