<?xml version="1.0" encoding="iso-8859-1"?>
<!-- Generator: Adobe Illustrator 18.1.1, SVG Export Plug-In . SVG Version: 6.00 Build 0)  -->
<svg xmlns="http://www.w3.org/2000/svg" xmlns:xlink="http://www.w3.org/1999/xlink" version="1.1" id="Capa_1" x="0px" y="0px" viewBox="0 0 340.689 340.689" style="enable-background:new 0 0 340.689 340.689;" xml:space="preserve" width="512px" height="512px">
<g>
	<g>
		<path d="M107.192,233.323c-3.951,0-7.158,3.207-7.158,7.158v93.05c0,3.951,3.207,7.158,7.158,7.158    s7.158-3.207,7.158-7.158v-93.05C114.35,236.526,111.143,233.323,107.192,233.323z" fill="#FFFFFF"/>
		<path d="M84.788,193.956c-3.951,0-7.158,3.207-7.158,7.158v93.05c0,3.951,3.207,7.158,7.158,7.158    c3.951,0,7.158-3.207,7.158-7.158v-93.05C91.946,197.159,88.743,193.956,84.788,193.956z" fill="#FFFFFF"/>
		<path d="M129.596,211.85c-3.951,0-7.158,3.207-7.158,7.158v93.05c0,3.951,3.207,7.158,7.158,7.158    c3.951,0,7.158-3.207,7.158-7.158v-93.05C136.753,215.053,133.547,211.85,129.596,211.85z" fill="#FFFFFF"/>
		<path d="M199.04,42.374c3.951,0,7.158-3.207,7.158-7.158V7.158c0-3.951-3.207-7.158-7.158-7.158    s-7.158,3.207-7.158,7.158v28.058C191.882,39.171,195.085,42.374,199.04,42.374z" fill="#FFFFFF"/>
		<path d="M122.95,69.705c1.399,1.399,3.228,2.097,5.064,2.097c1.832,0,3.661-0.698,5.061-2.094    c2.795-2.795,2.795-7.326,0-10.125L113.237,39.74c-2.795-2.795-7.326-2.795-10.125,0c-2.795,2.795-2.795,7.326,0,10.125    L122.95,69.705z" fill="#FFFFFF"/>
		<path d="M275.14,201.647c-2.795-2.795-7.329-2.792-10.125-0.004c-2.795,2.795-2.795,7.329-0.004,10.125    l19.845,19.855c1.399,1.399,3.232,2.097,5.064,2.097c1.832,0,3.661-0.698,5.061-2.094c2.795-2.795,2.795-7.329,0.004-10.125    L275.14,201.647z" fill="#FFFFFF"/>
		<path d="M327.567,128.517h-28.062c-3.951,0-7.158,3.207-7.158,7.158s3.207,7.158,7.158,7.158h28.062    c3.951,0,7.158-3.207,7.158-7.158S331.518,128.517,327.567,128.517z" fill="#FFFFFF"/>
		<path d="M270.076,71.802c1.832,0,3.661-0.698,5.06-2.097l19.845-19.845c2.795-2.795,2.795-7.326,0-10.121    s-7.326-2.795-10.121,0l-19.845,19.845c-2.795,2.795-2.795,7.326,0,10.121C266.415,71.105,268.244,71.802,270.076,71.802z" fill="#FFFFFF"/>
		<path d="M279.066,135.674c0-44.116-35.896-80.009-80.02-80.009c-35.141,0-65.729,22.955-76.147,55.748    c-6.71-2.276-13.85-3.504-21.223-3.504c-11.506,0-22.876,3.063-32.875,8.865c-6.707,3.887-12.601,8.865-17.565,14.82    c-7.43,0.451-14.702,2.645-21.201,6.41C15.187,146.611,5.964,162.58,5.964,179.68s9.226,33.061,24.079,41.665    c2.824,1.632,5.866,2.978,9.08,4.019c3.783,11.853,10.822,22.3,20.535,30.417c3.031,2.534,7.544,2.133,10.082-0.905    c2.534-3.035,2.129-7.544-0.902-10.082c-8.471-7.075-14.344-16.405-16.985-26.974c-0.651-2.605-2.702-4.624-5.315-5.236    c-3.396-0.798-6.535-2.015-9.323-3.629c-10.443-6.048-16.932-17.264-16.932-29.275s6.488-23.234,16.932-29.289    c5.157-2.988,11.009-4.567,16.634-4.574c0.129,0.011,0.53,0.036,0.659,0.043c2.308,0.064,4.57-0.995,5.97-2.87    c4.23-5.662,9.445-10.314,15.504-13.825c7.823-4.538,16.71-6.936,25.696-6.936c7.022,0,13.782,1.406,19.981,4.023    c0.669,0.945,1.571,1.739,2.663,2.28c9.012,4.463,16.445,11.295,21.495,19.766c1.961,3.289,6.166,4.449,9.538,2.638    c6.929-3.722,15.6-3.6,22.515,0.397c7.036,4.08,11.431,11.563,11.61,19.616c-0.072,4.055-1.181,8.027-3.264,11.513    c-0.809,1.356-1.099,2.895-0.945,4.398c-0.043,1.643,0.415,3.289,1.489,4.635c3.951,4.957,6.381,11.062,7.036,17.665    c0.047,0.465,0.136,0.916,0.265,1.349c0.014,0.354,0.047,0.701,0.047,1.059c0,12.014-6.488,23.234-16.935,29.286    c-7.576,4.391-16.574,5.737-25.231,3.5c-3.837-0.995-7.734,1.306-8.725,5.132c-0.991,3.826,1.306,7.734,5.132,8.725    c3.933,1.02,7.941,1.539,11.914,1.539c8.421,0,16.753-2.251,24.086-6.503c13.829-8.006,22.772-22.407,23.935-38.161    C248.506,210.526,279.066,176.956,279.066,135.674z M207.203,200.799c-1.213-5.293-3.321-10.329-6.284-14.963    c1.897-4.549,2.906-9.437,2.906-14.391c0-0.15-0.029-0.297-0.032-0.447c0.004-0.15,0.025-0.297,0.025-0.447    c0-13.328-7.193-25.782-18.782-32.507c-9.162-5.293-20.417-6.449-30.381-3.21c-5.139-7.05-11.502-12.87-18.699-17.289    c7.981-27.883,33.591-47.559,63.084-47.559c36.229,0,65.704,29.472,65.704,65.693    C264.751,169.369,239.949,196.822,207.203,200.799z" fill="#FFFFFF"/>
	</g>
</g>
<g>
</g>
<g>
</g>
<g>
</g>
<g>
</g>
<g>
</g>
<g>
</g>
<g>
</g>
<g>
</g>
<g>
</g>
<g>
</g>
<g>
</g>
<g>
</g>
<g>
</g>
<g>
</g>
<g>
</g>
</svg>
