<?xml version="1.0" encoding="iso-8859-1"?>
<!-- Generator: Adobe Illustrator 18.1.1, SVG Export Plug-In . SVG Version: 6.00 Build 0)  -->
<svg xmlns="http://www.w3.org/2000/svg" xmlns:xlink="http://www.w3.org/1999/xlink" version="1.1" id="Capa_1" x="0px" y="0px" viewBox="0 0 286.175 286.175" style="enable-background:new 0 0 286.175 286.175;" xml:space="preserve" width="512px" height="512px">
<g>
	<g>
		<path d="M106.829,263.581c3.951,0,7.158-3.207,7.158-7.158v-70.657c0-3.951-3.207-7.158-7.158-7.158    s-7.158,3.207-7.158,7.158v70.657C99.672,260.375,102.878,263.581,106.829,263.581z" fill="#FFFFFF"/>
		<circle cx="106.829" cy="278.816" r="7.358" fill="#FFFFFF"/>
		<path d="M129.233,242.112c3.951,0,7.158-3.207,7.158-7.158v-70.657c0-3.951-3.207-7.158-7.158-7.158    c-3.951,0-7.158,3.207-7.158,7.158v70.657C122.075,238.905,125.278,242.112,129.233,242.112z" fill="#FFFFFF"/>
		<circle cx="129.233" cy="257.343" r="7.358" fill="#FFFFFF"/>
		<path d="M84.426,224.217c3.951,0,7.158-3.207,7.158-7.158v-70.657c0-3.951-3.207-7.158-7.158-7.158    s-7.158,3.207-7.158,7.158v70.657C77.268,221.011,80.475,224.217,84.426,224.217z" fill="#FFFFFF"/>
		<circle cx="84.426" cy="239.449" r="7.358" fill="#FFFFFF"/>
		<path d="M278.514,87.763c-1.664-1.682-4.033-2.441-6.367-2.022c-4.069,0.734-7.87,1.088-11.617,1.088    c-36.229,0-65.697-29.468-65.697-65.686c0-4.137,0.419-8.382,1.238-12.619c0.455-2.316-0.265-4.706-1.922-6.388    c-1.657-1.686-4.041-2.441-6.36-2.022c-30.492,5.447-54.807,28.051-62.902,57.423c-7.38-2.824-15.332-4.338-23.57-4.338    c-11.502,0-22.869,3.067-32.875,8.868c-6.71,3.887-12.601,8.865-17.565,14.816c-7.426,0.455-14.698,2.648-21.201,6.413    c-14.849,8.6-24.071,24.572-24.071,41.676c0,17.093,9.226,33.058,24.075,41.658c2.82,1.632,5.862,2.981,9.083,4.026    c3.783,11.85,10.822,22.296,20.535,30.413c3.035,2.541,7.548,2.137,10.082-0.902c2.534-3.031,2.133-7.544-0.902-10.078    c-8.471-7.083-14.344-16.413-16.985-26.981c-0.651-2.605-2.702-4.624-5.315-5.236c-3.407-0.798-6.542-2.015-9.323-3.629    c-10.443-6.048-16.932-17.264-16.932-29.271c0-12.011,6.488-23.237,16.932-29.289c5.161-2.988,11.012-4.57,16.588-4.581    c0.175,0.014,0.648,0.047,0.82,0.05c2.373,0.097,4.477-1.034,5.855-2.874c4.227-5.662,9.441-10.311,15.504-13.822    c7.831-4.538,16.713-6.936,25.696-6.936c18.245,0,34.743,9.405,44.138,25.159c1.51,2.534,4.348,3.786,7.115,3.403    c1.299,0.093,2.641-0.157,3.879-0.812c3.074-1.636,6.467-2.48,9.885-2.627c3.872,0.075,7.737,1.102,11.17,3.078    c7.179,4.166,11.638,11.875,11.638,20.12c0,4.191-1.131,8.307-3.285,11.9c-1.532,2.559-1.321,5.801,0.537,8.131    c4.81,6.041,7.347,13.299,7.347,20.976c0,12.011-6.485,23.23-16.935,29.282c-7.576,4.391-16.552,5.737-25.242,3.5    c-3.851-0.977-7.73,1.317-8.718,5.143c-0.988,3.826,1.313,7.73,5.139,8.722c3.937,1.016,7.949,1.532,11.91,1.532    c8.425,0,16.756-2.251,24.086-6.503c14.351-8.31,23.424-23.506,24.018-39.958c35.577-2.716,65.536-28.942,72.436-64.398    C280.89,91.839,280.171,89.449,278.514,87.763z M207.76,144.244c-1.285-4.817-3.285-9.373-5.941-13.507    c2.054-4.706,3.124-9.795,3.124-14.956c0-13.335-7.193-25.793-18.789-32.521c-6.109-3.525-13.149-5.171-20.124-4.942    c-3.543-0.021-7.083,0.487-10.493,1.46c-4.767-6.388-10.676-11.896-17.483-16.237c5.225-21.953,21.43-39.614,42.581-46.844    c-0.082,1.489-0.125,2.97-0.125,4.441c0,44.113,35.892,80.002,80.012,80.002c1.063,0,2.133-0.021,3.203-0.072    C255.14,124.94,233.281,141.968,207.76,144.244z" fill="#FFFFFF"/>
	</g>
</g>
<g>
</g>
<g>
</g>
<g>
</g>
<g>
</g>
<g>
</g>
<g>
</g>
<g>
</g>
<g>
</g>
<g>
</g>
<g>
</g>
<g>
</g>
<g>
</g>
<g>
</g>
<g>
</g>
<g>
</g>
</svg>
