<?xml version="1.0" encoding="iso-8859-1"?>
<!-- Generator: Adobe Illustrator 18.1.1, SVG Export Plug-In . SVG Version: 6.00 Build 0)  -->
<svg xmlns="http://www.w3.org/2000/svg" xmlns:xlink="http://www.w3.org/1999/xlink" version="1.1" id="Capa_1" x="0px" y="0px" viewBox="0 0 202.459 202.459" style="enable-background:new 0 0 202.459 202.459;" xml:space="preserve" width="512px" height="512px">
<g>
	<g>
		<path d="M194.75,80.429c2.04-4.703,3.106-9.788,3.106-14.945c0-13.324-7.194-25.775-18.782-32.5    c-9.212-5.325-20.571-6.438-30.399-3.225C136.369,13.022,116.603,2.847,95.713,2.847c-11.499,0-22.865,3.067-32.875,8.872    c-6.71,3.883-12.605,8.861-17.569,14.816c-7.423,0.451-14.698,2.645-21.198,6.413C9.223,41.552,0,57.521,0,74.624    c0,17.096,9.226,33.058,24.071,41.654c2.817,1.632,5.862,2.981,9.094,4.026c3.296,10.278,9.122,19.626,17.01,27.231    c2.845,2.745,7.38,2.659,10.121-0.183c2.745-2.849,2.663-7.38-0.186-10.121c-6.986-6.739-11.903-15.203-14.222-24.479    c-0.651-2.605-2.702-4.624-5.315-5.236c-3.414-0.802-6.549-2.018-9.326-3.629c-10.443-6.045-16.932-17.261-16.932-29.268    c0-12.014,6.488-23.237,16.932-29.289c5.161-2.988,11.012-4.57,16.652-4.577c0.154,0.014,0.605,0.039,0.759,0.039    c2.412,0.086,4.477-1.034,5.855-2.874c4.227-5.662,9.441-10.307,15.504-13.818c7.831-4.542,16.717-6.939,25.696-6.939    c18.241,0,34.74,9.405,44.138,25.159c1.954,3.282,6.141,4.449,9.513,2.648c6.979-3.711,15.636-3.59,22.536,0.401    c7.183,4.166,11.642,11.871,11.642,20.113c0,4.187-1.134,8.307-3.289,11.91c-1.528,2.559-1.313,5.794,0.54,8.128    c4.81,6.048,7.351,13.303,7.351,20.983c0,12.011-6.488,23.234-16.939,29.282c-5.161,2.992-11.009,4.57-16.914,4.57    c-1.421,0-2.874-0.104-4.434-0.322c-3.894-0.526-7.53,2.194-8.07,6.113c-0.537,3.915,2.194,7.53,6.113,8.07    c2.219,0.304,4.309,0.455,6.392,0.455c8.421,0,16.753-2.248,24.086-6.496c14.852-8.596,24.082-24.565,24.082-41.672    C202.459,97.132,199.807,88.206,194.75,80.429z" fill="#FFFFFF"/>
		<path d="M115.393,138.979l-18.61,7.759l11.538-30.943c1.385-3.704-0.501-7.831-4.205-9.208    c-3.708-1.378-7.827,0.505-9.208,4.205l-17.304,46.403c-0.995,2.673-0.311,5.683,1.743,7.662c2.054,1.976,5.082,2.541,7.72,1.446    l17.748-7.401l-12.88,30.789c-1.525,3.647,0.193,7.838,3.84,9.362c0.902,0.376,1.84,0.558,2.759,0.558    c2.799-0.004,5.458-1.653,6.607-4.398l19.605-46.861c1.12-2.677,0.515-5.766-1.539-7.82    C121.158,138.468,118.059,137.863,115.393,138.979z" fill="#FFFFFF"/>
	</g>
</g>
<g>
</g>
<g>
</g>
<g>
</g>
<g>
</g>
<g>
</g>
<g>
</g>
<g>
</g>
<g>
</g>
<g>
</g>
<g>
</g>
<g>
</g>
<g>
</g>
<g>
</g>
<g>
</g>
<g>
</g>
</svg>
