<?xml version="1.0" encoding="iso-8859-1"?>
<!-- Generator: Adobe Illustrator 18.1.1, SVG Export Plug-In . SVG Version: 6.00 Build 0)  -->
<svg xmlns="http://www.w3.org/2000/svg" xmlns:xlink="http://www.w3.org/1999/xlink" version="1.1" id="Capa_1" x="0px" y="0px" viewBox="0 0 202.456 202.456" style="enable-background:new 0 0 202.456 202.456;" xml:space="preserve" width="512px" height="512px">
<g>
	<g>
		<path d="M130.811,142.687c-1.997-3.407-6.374-4.556-9.792-2.566l-12.633,7.383v-14.63    c0-3.951-3.207-7.158-7.158-7.158s-7.158,3.207-7.158,7.158v14.641l-12.641-7.39c-3.421-2.001-7.798-0.845-9.792,2.566    c-1.997,3.414-0.845,7.798,2.566,9.792l12.837,7.508l-12.837,7.505c-3.414,1.997-4.563,6.378-2.566,9.792    c1.331,2.276,3.726,3.543,6.188,3.543c1.228,0,2.469-0.315,3.604-0.977l12.637-7.387v14.648c0,3.951,3.203,7.158,7.158,7.158    c3.951,0,7.158-3.207,7.158-7.158l0.004-14.648l12.633,7.387c1.135,0.666,2.38,0.977,3.607,0.977c2.462,0,4.853-1.267,6.188-3.543    c1.997-3.414,0.845-7.798-2.566-9.792l-12.837-7.505l12.837-7.508C131.655,150.485,132.804,146.105,130.811,142.687z" fill="#FFFFFF"/>
		<path d="M194.747,85.765c2.04-4.703,3.106-9.788,3.106-14.945c0-13.328-7.193-25.778-18.782-32.503    c-9.212-5.329-20.564-6.442-30.402-3.221c-12.304-16.738-32.07-26.913-52.96-26.913c-11.502,0-22.869,3.067-32.875,8.868    c-6.707,3.887-12.601,8.861-17.565,14.816c-7.426,0.455-14.702,2.648-21.198,6.413C9.223,46.888,0,62.857,0,79.957    s9.226,33.061,24.075,41.658c2.82,1.636,5.866,2.981,9.09,4.026c3.296,10.282,9.122,19.626,17.01,27.231    c2.845,2.745,7.38,2.659,10.121-0.183c2.745-2.849,2.663-7.38-0.186-10.121c-6.986-6.735-11.903-15.199-14.222-24.483    c-0.651-2.602-2.702-4.62-5.315-5.232c-3.407-0.798-6.542-2.015-9.326-3.629c-10.443-6.045-16.932-17.261-16.932-29.271    c0-12.011,6.488-23.234,16.932-29.289c5.161-2.988,11.009-4.57,16.645-4.577c0.14,0.011,0.565,0.039,0.705,0.043    c2.373,0.061,4.524-1.013,5.912-2.874c4.227-5.662,9.445-10.311,15.504-13.822c7.831-4.538,16.713-6.936,25.696-6.936    c18.245,0,34.743,9.405,44.138,25.159c1.954,3.278,6.141,4.452,9.516,2.648c6.979-3.718,15.632-3.593,22.532,0.397    c7.183,4.166,11.642,11.875,11.642,20.117c0,4.187-1.135,8.307-3.289,11.91c-1.528,2.559-1.313,5.794,0.54,8.128    c4.81,6.048,7.351,13.303,7.351,20.979c0,12.014-6.488,23.237-16.939,29.286c-5.161,2.992-11.009,4.57-16.914,4.57    c-1.421,0-2.874-0.104-4.434-0.322c-3.894-0.523-7.53,2.194-8.07,6.113c-0.537,3.915,2.194,7.53,6.113,8.07    c2.219,0.304,4.309,0.455,6.392,0.455c8.421,0,16.753-2.248,24.086-6.496c14.852-8.596,24.082-24.565,24.082-41.676    C202.456,102.464,199.804,93.542,194.747,85.765z" fill="#FFFFFF"/>
	</g>
</g>
<g>
</g>
<g>
</g>
<g>
</g>
<g>
</g>
<g>
</g>
<g>
</g>
<g>
</g>
<g>
</g>
<g>
</g>
<g>
</g>
<g>
</g>
<g>
</g>
<g>
</g>
<g>
</g>
<g>
</g>
</svg>
