<?xml version="1.0" encoding="iso-8859-1"?>
<!-- Generator: Adobe Illustrator 18.1.1, SVG Export Plug-In . SVG Version: 6.00 Build 0)  -->
<svg xmlns="http://www.w3.org/2000/svg" xmlns:xlink="http://www.w3.org/1999/xlink" version="1.1" id="Capa_1" x="0px" y="0px" viewBox="0 0 264.466 264.466" style="enable-background:new 0 0 264.466 264.466;" xml:space="preserve" width="512px" height="512px">
<g>
	<g>
		<path d="M257.309,125.075H38.372c-3.951,0-7.158,3.207-7.158,7.158s3.207,7.158,7.158,7.158h218.936    c3.951,0,7.158-3.207,7.158-7.158S261.263,125.075,257.309,125.075z" fill="#FFFFFF"/>
		<path d="M136.297,161.794H10.379c-3.951,0-7.158,3.207-7.158,7.158c0,3.951,3.207,7.158,7.158,7.158    h125.918c3.951,0,7.158-3.207,7.158-7.158C143.455,165.001,140.248,161.794,136.297,161.794z" fill="#FFFFFF"/>
		<path d="M217.175,102.672c3.951,0,7.158-3.207,7.158-7.158c0-3.951-3.207-7.158-7.158-7.158H7.158    C3.207,88.356,0,91.563,0,95.514c0,3.951,3.207,7.158,7.158,7.158H217.175z" fill="#FFFFFF"/>
	</g>
</g>
<g>
</g>
<g>
</g>
<g>
</g>
<g>
</g>
<g>
</g>
<g>
</g>
<g>
</g>
<g>
</g>
<g>
</g>
<g>
</g>
<g>
</g>
<g>
</g>
<g>
</g>
<g>
</g>
<g>
</g>
</svg>
